ply
format ascii 1.0
element vertex 20
property float x
property float y
property float z
end_header
1.20911 -0.95176 0.287549
1.06723 -1.59058 -0.961356
0.629984 -2.59203 -1.51704
1.12414 -1.75373 -2.33689
0.89744 0.137055 0.472882
-0.122614 -0.0186393 -1.70527
-0.223165 0.0733643 -2.6377
0.0166282 -0.0198885 -3.35544
0.121137 -0.0145296 -4.10717
3.93091 0.153829 -4.27469
4.13757 -4.80032e-009 -4.84951
3.16561 0.118864 -4.8309
3.03002 -0.0520028 -5.28843
4.64665 -0.844062 -1.85105
5.13069 -1.06178 -0.444545
7.03151 -0.863977 0.437813
4.91869 -0.23328 0.155
2.27203 0.116808 -4.81192
1.8731 -0.18155 1.32827
0.683981 -0.115458 -4.81462
