ply
format ascii 1.0
element vertex 34
property float x
property float y
property float z
property uchar diffuse_red
property uchar diffuse_green
property uchar diffuse_blue
end_header
0.302053 7.6503e-010 -0.221065 0 255 0
0.630991 -0.898966 0.133711 0 255 0
1.20911 -0.95176 0.287549 255 0 255
1.06723 -1.59058 -0.961356 255 0 255
0.629984 -2.59203 -1.51704 255 0 255
1.12414 -1.75373 -2.33689 255 0 255
4.05274 -1.16306 -4.32122 0 255 0
4.53447 -1.27308 -3.55936 0 255 0
0.89744 0.137055 0.472882 255 0 255
1.42151 0.0135726 0.864185 0 255 0
0.00111308 -0.107634 -1.24593 0 255 0
-0.122614 -0.0186393 -1.70527 255 0 255
-0.223165 0.0733643 -2.6377 255 0 255
0.0166282 -0.0198885 -3.35544 255 0 255
0.121137 -0.0145296 -4.10717 255 0 255
4.74192 -3.69203e-009 -4.09484 0 255 0
3.93091 0.153829 -4.27469 255 0 255
3.64573 0.180573 -4.51904 0 255 0
4.13757 -4.80032e-009 -4.84951 255 0 255
3.16561 0.118864 -4.8309 255 0 255
3.40973 0.0284367 -5.33989 0 255 0
3.03002 -0.0520028 -5.28843 255 0 255
4.75142 -0.046713 -2.98781 0 255 0
5.11936 -0.11828 -2.13243 0 255 0
4.64665 -0.844062 -1.85105 255 0 255
5.13069 -1.06178 -0.444545 255 0 255
7.03151 -0.863977 0.437813 255 0 255
5.54105 -0.0284395 -0.441683 0 255 0
4.91869 -0.23328 0.155 255 0 255
2.27203 0.116808 -4.81192 255 0 255
2.41549 -0.718611 0.324114 0 255 0
1.8731 -0.18155 1.32827 255 0 255
1.48297 0.0535405 -4.90215 0 255 0
0.683981 -0.115458 -4.81462 255 0 255
