ply
format ascii 1.0
element vertex 44
property float x
property float y
property float z
property uchar diffuse_red
property uchar diffuse_green
property uchar diffuse_blue
end_header
-0.276827 -0.676293 -2.19358 0 255 0
-0.732662 -0.911182 -2.89168 0 255 0
-6.51512 -1.92191 -3.78844 0 255 0
-7.48398 -0.381268 -2.98213 0 255 0
-12.7135 -1.25379 -5.69176 255 0 255
-9.66049 1.08329 -11.1154 255 0 255
0.556712 2.07618 -10.3178 0 255 0
1.27304 0.236479 -10.7401 255 0 255
0.328489 5.36291 -10.8787 0 255 0
1.31451 8.93248e-007 -20.1194 0 255 0
3.13033 2.1834 -19.1622 255 0 255
2.23491 -1.0683 -24.2627 0 255 0
-4.99794 -1.22261 -22.0616 255 0 255
5.51081 0.980794 -20.0115 0 255 0
5.13053 1.96531 -10.6433 0 255 0
5.10758 1.85746 -5.83057 255 0 255
4.0683 0.0395213 -2.7339 255 0 255
3.42385 -2.25639 0.0236266 255 0 255
5.92955 -2.8322 -23.4315 255 0 255
7.63757 -4.09013 1.23485 0 255 0
9.37234 7.20465e-008 2.14148 255 0 255
8.82163 -2.01095 -0.104053 255 0 255
10.8736 -0.534038 -5.99465 255 0 255
10.7027 -0.737014 -10.212 255 0 255
10.5471 0.649824 -10.7349 255 0 255
10.2497 -4.09836 -20.7359 0 255 0
10.5527 -1.94947 -21.0091 255 0 255
12.7433 -0.698283 -22.9595 0 255 0
-2.4154 -3.07583 3.10882 255 0 255
-11.712 -5.74244 -18.5736 255 0 255
10.2072 -1.10993 -0.377502 0 255 0
1.44019 -6.54604 -27.5041 255 0 255
3.03987 17.0347 -6.18444 0 255 0
-0.526513 10.1649 9.53349 0 255 0
11.5859 0.201983 -14.4549 255 0 255
19.5594 9.12877 4.86231 0 255 0
3.59794 14.5864 -32.0028 255 0 255
-5.67771 -1.37741e-007 -12.67 0 255 0
-21.9109 -8.99624 -13.0762 255 0 255
6.70799 130.664 49.1199 0 255 0
3.08992 3.2943 -41.389 255 0 255
-6.0244 -2.40566 -22.162 0 255 0
-6.55047 -3.45276 -25.7352 0 255 0
23.1897 1.92369 -38.0039 255 0 255
