ply
format ascii 1.0
element vertex 23
property float x
property float y
property float z
end_header
-12.7135 -1.25379 -5.69176
-9.66049 1.08329 -11.1154
1.27304 0.236479 -10.7401
3.13033 2.1834 -19.1622
-4.99794 -1.22261 -22.0616
5.10758 1.85746 -5.83057
4.0683 0.0395213 -2.7339
3.42385 -2.25639 0.0236266
5.92955 -2.8322 -23.4315
9.37234 7.20465e-008 2.14148
8.82163 -2.01095 -0.104053
10.8736 -0.534038 -5.99465
10.7027 -0.737014 -10.212
10.5471 0.649824 -10.7349
10.5527 -1.94947 -21.0091
-2.4154 -3.07583 3.10882
-11.712 -5.74244 -18.5736
1.44019 -6.54604 -27.5041
11.5859 0.201983 -14.4549
3.59794 14.5864 -32.0028
-21.9109 -8.99624 -13.0762
3.08992 3.2943 -41.389
23.1897 1.92369 -38.0039
