ply
format ascii 1.0
element vertex 23
property float x
property float y
property float z
property uchar diffuse_red
property uchar diffuse_green
property uchar diffuse_blue
end_header
-0.496908 -0.167221 0.591239 0 255 0
-0.0132712 0.257783 1.13801 255 0 255
0.01034 -0.134802 1.05184 255 0 255
0.314497 0.00210327 1.30324 255 0 255
0.788556 -6.79411e-009 2.77716 0 255 0
0.766476 0.66955 3.26714 0 255 0
-0.824519 0.396464 1.05017 255 0 255
-1.08225 -0.768067 1.54442 255 0 255
-2.35875 0.0596361 2.4423 0 255 0
-2.26438 -0.117985 1.43289 0 255 0
-2.56608 -2.17953e-008 1.86585 255 0 255
-2.32999 0.000199308 1.08213 255 0 255
-2.26439 -1.38006e-008 2.92051 255 0 255
-1.47991 -0.40422 2.86314 0 255 0
-0.760048 -0.605131 2.3506 255 0 255
-0.695896 -0.183748 3.01951 255 0 255
-1.42234 -0.287712 3.42379 255 0 255
-1.16742 0.641062 3.55412 0 255 0
-2.40645 0.352353 0.499298 255 0 255
-3.23155 0.506434 2.14447 255 0 255
-1.19079 0.237925 0.22235 0 255 0
-1.39139 -0.000829428 1.08844 255 0 255
-1.76819 0.052106 0.0550107 255 0 255
