ply
format ascii 1.0
element vertex 15
property float x
property float y
property float z
end_header
-0.0132712 0.257783 1.13801
0.01034 -0.134802 1.05184
0.314497 0.00210327 1.30324
-0.824519 0.396464 1.05017
-1.08225 -0.768067 1.54442
-2.56608 -2.17953e-008 1.86585
-2.32999 0.000199308 1.08213
-2.26439 -1.38006e-008 2.92051
-0.760048 -0.605131 2.3506
-0.695896 -0.183748 3.01951
-1.42234 -0.287712 3.42379
-2.40645 0.352353 0.499298
-3.23155 0.506434 2.14447
-1.39139 -0.000829428 1.08844
-1.76819 0.052106 0.0550107
