ply
format ascii 1.0
element vertex 19
property float x
property float y
property float z
end_header
1.23431 -0.654772 -0.142071
0.807056 -1.29636 -1.28277
0.981371 0.426462 0.0608713
1.56953 0.306853 0.330256
-0.752079 0.0310196 -1.54892
-1.05621 0.129821 -2.5162
-0.93497 0.0305298 -3.32186
-1.06181 -0.01301 -4.13491
3.55383 -0.000438975 -5.29498
1.78907 0.115346 -5.60476
1.52834 -0.0838606 -6.03952
3.90473 -0.0179862 -4.2053
4.46027 -0.0251019 -3.47443
3.95147 -0.275331 -2.05572
0.915073 0.128448 -5.35144
5.30017 3.72489e-008 -2.24651
4.61478 -0.111135 -1.28028
2.12211 0.124808 0.677033
0.0817988 0.0428516 -5.27073
