ply
format ascii 1.0
element vertex 35
property float x
property float y
property float z
property uchar diffuse_red
property uchar diffuse_green
property uchar diffuse_blue
end_header
0.243877 0.260837 -0.427416 0 255 0
0.656983 -0.5928 -0.165631 0 255 0
1.23431 -0.654772 -0.142071 255 0 255
0.807056 -1.29636 -1.28277 255 0 255
0.281323 -2.27517 -1.6441 0 255 0
0.506068 -1.5664 -2.55944 0 255 0
2.80903 -1.23678 -5.31127 0 255 0
3.49158 -1.3181 -4.65894 0 255 0
0.981371 0.426462 0.0608713 255 0 255
1.56953 0.306853 0.330256 255 0 255
-0.414792 1.5771e-008 -1.1614 0 255 0
-0.752079 0.0310196 -1.54892 255 0 255
-1.05621 0.129821 -2.5162 255 0 255
-0.93497 0.0305298 -3.32186 255 0 255
-1.06181 -0.01301 -4.13491 255 0 255
3.55383 -0.000438975 -5.29498 255 0 255
2.69218 0.160832 -5.26095 0 255 0
2.34466 0.184009 -5.42507 0 255 0
2.74588 -0.0220059 -5.87958 0 255 0
1.78907 0.115346 -5.60476 255 0 255
1.89027 4.13767e-008 -6.1729 0 255 0
1.52834 -0.0838606 -6.03952 255 0 255
3.90473 -0.0179862 -4.2053 255 0 255
4.46027 -0.0251019 -3.47443 255 0 255
4.02016 -0.760724 -2.97935 0 255 0
3.95147 -0.275331 -2.05572 255 0 255
0.915073 0.128448 -5.35144 255 0 255
5.30017 3.72489e-008 -2.24651 255 0 255
4.81862 -0.0296514 -1.90929 0 255 0
4.61478 -0.111135 -1.28028 255 0 255
2.40448 -0.485827 -0.347376 0 255 0
2.12211 0.124808 0.677033 255 0 255
0.0817988 0.0428516 -5.27073 255 0 255
-0.613054 -0.109586 -4.92016 0 255 0
3.70127 -0.673266 -0.89582 0 255 0
