ply
format ascii 1.0
element vertex 15
property float x
property float y
property float z
end_header
-1.10448 0.0342991 -1.36397
-1.63101 0.120375 -2.12679
-1.74603 0.0297389 -2.84064
-2.03336 -4.21563e-008 -3.4694
0.746508 0.0369635 -5.83546
0.591761 -0.169178 -6.43153
-0.302508 -0.176589 -6.41854
-0.586454 -0.254003 -6.15176
2.24851 -0.0960533 -5.28368
2.94522 -0.0390604 -4.751
2.7604 -0.755471 -4.14034
3.05898 -0.293179 -3.2815
-0.929601 -0.0361551 -5.30844
3.86655 3.40309e-008 -3.44914
3.83777 -0.0638785 -2.83412
