ply
format ascii 1.0
element vertex 34
property float x
property float y
property float z
property uchar diffuse_red
property uchar diffuse_green
property uchar diffuse_blue
end_header
0.107679 0.185374 -0.435235 0 255 0
0.62332 -0.676862 -0.291548 0 255 0
1.18504 -0.704379 -0.503965 0 255 0
0.396209 -1.42456 -1.40394 0 255 0
-0.224816 -2.48001 -1.54391 0 255 0
-0.333934 -1.70614 -2.54606 0 255 0
0.885943 -1.3525 -5.89642 0 255 0
1.72378 -1.38184 -5.50048 0 255 0
0.979729 0.373057 -0.21667 0 255 0
1.64018 0.281235 -0.174648 0 255 0
-0.710369 -6.54468e-009 -1.10266 0 255 0
-1.10448 0.0342991 -1.36397 255 0 255
-1.63101 0.120375 -2.12679 255 0 255
-1.74603 0.0297389 -2.84064 255 0 255
-2.03336 -4.21563e-008 -3.4694 255 0 255
1.54361 -0.11689 -6.17374 0 255 0
0.746508 0.0369635 -5.83546 255 0 255
0.369119 0.0465149 -5.87044 0 255 0
0.591761 -0.169178 -6.43153 255 0 255
-0.205016 -0.0380832 -5.84488 0 255 0
-0.302508 -0.176589 -6.41854 255 0 255
-0.586454 -0.254003 -6.15176 255 0 255
2.24851 -0.0960533 -5.28368 255 0 255
2.94522 -0.0390604 -4.751 255 0 255
2.7604 -0.755471 -4.14034 255 0 255
3.05898 -0.293179 -3.2815 255 0 255
-0.929601 -0.0361551 -5.30844 255 0 255
4.1432 0.0475276 -3.89217 0 255 0
3.86655 3.40309e-008 -3.44914 255 0 255
3.83777 -0.0638785 -2.83412 255 0 255
2.2012 -0.489028 -1.13451 0 255 0
2.27935 0.134681 -0.0629248 0 255 0
-1.49652 -0.0460601 -4.79686 0 255 0
3.56721 -0.907013 -1.95717 0 255 0
