ply
format ascii 1.0
element vertex 31
property float x
property float y
property float z
end_header
-0.932316 -1.13266e-008 -0.166621
-0.93877 0.0417693 0.248123
-0.525637 -0.0264574 -0.641256
-0.118159 -0.0702809 -0.577164
0.0836446 -0.127903 -0.556009
0.0492119 0.0799817 -0.640865
-0.143963 -0.448941 0.840723
-0.434121 -0.393872 0.815886
-0.565697 -0.34182 0.8937
-0.57317 -0.221609 0.878397
-0.609548 -0.267382 0.981957
-0.527626 -0.237818 0.664747
-0.136778 -0.153253 0.954098
0.1504 -0.199981 0.912997
0.178547 -0.144002 0.945666
-0.257692 -0.0340404 1.05422
0.359387 5.41513e-009 0.706475
-0.0610622 -0.0385096 1.06605
0.435262 -0.030649 0.556585
-0.258496 0.241449 -0.575882
-0.398586 0.336727 -0.533678
-0.618813 0.410679 -0.4834
-0.926381 0.40293 -0.370362
-0.781555 -0.10866 0.933135
-0.948261 -0.0474932 0.652769
-1.06258 -0.0956568 0.858119
0.322078 -0.195581 0.128604
-1.39547 0.0523681 0.625471
-0.628363 7.22043e-009 1.11201
0.518279 0.0251135 0.348522
0.433154 0.035555 0.0808455
